<svg width="171" height="37" viewBox="0 0 171 37" fill="none" xmlns="http://www.w3.org/2000/svg">
<path fill-rule="evenodd" clip-rule="evenodd" d="M3.13307 34.4587C1.40988 34.4587 1.6082e-07 33.0488 1.49105e-07 31.3256L7.46349e-08 20.372L7.88626 20.372L7.88626 20.3598L12.6263 20.3598C13.8482 20.3285 14.8821 19.2633 14.8821 18.01C14.8821 16.7255 13.8168 15.6602 12.5323 15.6602L6.26614 15.6602L6.26614 15.6622L4.26148e-08 15.6622L2.13006e-08 12.5272C9.58529e-09 10.804 1.40988 9.3941 3.13307 9.3941L12.5323 9.3941C14.9134 9.3941 16.9499 10.24 18.6104 11.9319C20.3023 13.5924 21.1482 15.6289 21.1482 18.01C21.1482 20.3598 20.3336 22.3963 18.6731 24.0569C17.0126 25.7174 15.0074 26.5947 12.6576 26.626L6.26614 26.626L6.26614 31.3256C6.26614 33.0488 4.85626 34.4587 3.13307 34.4587Z" fill="#02BC6B"/>
<path fill-rule="evenodd" clip-rule="evenodd" d="M25.0975 5.7578C28.5589 9.11993 30.3031 13.3073 30.3031 18.0672C30.3031 22.7473 28.6319 26.9307 25.2239 30.3034L20.3852 25.7508C22.5047 23.6533 23.545 21.128 23.545 18.0672C23.545 14.9832 22.4734 12.4619 20.3031 10.3538L25.0975 5.7578Z" fill="#02897A"/>
<path fill-rule="evenodd" clip-rule="evenodd" d="M32.5055 -3.14562e-08C37.4911 4.97781 39.9999 11.1499 39.9999 18.2338C39.9999 25.2071 37.5922 31.3753 32.6884 36.3638L28.0186 31.8009C31.6715 28.085 33.4614 23.5781 33.4614 18.2338C33.4614 12.8358 31.6111 8.33276 27.8787 4.60616L32.5055 -3.14562e-08Z" fill="#035B81"/>
<path fill-rule="evenodd" clip-rule="evenodd" d="M0 26.6524L6.26614 26.6524L6.26614 31.326C6.26614 33.0492 4.85626 34.4591 3.13307 34.4591C1.40988 34.4591 4.34898e-08 33.0492 3.17744e-08 31.326L0 26.6524Z" fill="#028E37"/>
<path d="M66.91 19.72C66.91 20.94 66.63 22.06 66.07 23.08C65.51 24.08 64.65 24.89 63.49 25.51C62.33 26.13 60.89 26.44 59.17 26.44H55.99V34H50.86V12.94H59.17C60.85 12.94 62.27 13.23 63.43 13.81C64.59 14.39 65.46 15.19 66.04 16.21C66.62 17.23 66.91 18.4 66.91 19.72ZM58.78 22.36C59.76 22.36 60.49 22.13 60.97 21.67C61.45 21.21 61.69 20.56 61.69 19.72C61.69 18.88 61.45 18.23 60.97 17.77C60.49 17.31 59.76 17.08 58.78 17.08H55.99V22.36H58.78ZM74.7107 20.05C75.3107 19.13 76.0607 18.41 76.9607 17.89C77.8607 17.35 78.8607 17.08 79.9607 17.08V22.51H78.5507C77.2707 22.51 76.3107 22.79 75.6707 23.35C75.0307 23.89 74.7107 24.85 74.7107 26.23V34H69.5807V17.26H74.7107V20.05ZM90.0327 34.24C88.3927 34.24 86.9127 33.89 85.5927 33.19C84.2927 32.49 83.2627 31.49 82.5027 30.19C81.7627 28.89 81.3927 27.37 81.3927 25.63C81.3927 23.91 81.7727 22.4 82.5327 21.1C83.2927 19.78 84.3327 18.77 85.6527 18.07C86.9727 17.37 88.4527 17.02 90.0927 17.02C91.7327 17.02 93.2127 17.37 94.5327 18.07C95.8527 18.77 96.8927 19.78 97.6527 21.1C98.4127 22.4 98.7927 23.91 98.7927 25.63C98.7927 27.35 98.4027 28.87 97.6227 30.19C96.8627 31.49 95.8127 32.49 94.4727 33.19C93.1527 33.89 91.6727 34.24 90.0327 34.24ZM90.0327 29.8C91.0127 29.8 91.8427 29.44 92.5227 28.72C93.2227 28 93.5727 26.97 93.5727 25.63C93.5727 24.29 93.2327 23.26 92.5527 22.54C91.8927 21.82 91.0727 21.46 90.0927 21.46C89.0927 21.46 88.2627 21.82 87.6027 22.54C86.9427 23.24 86.6127 24.27 86.6127 25.63C86.6127 26.97 86.9327 28 87.5727 28.72C88.2327 29.44 89.0527 29.8 90.0327 29.8ZM100.494 25.6C100.494 23.88 100.814 22.37 101.454 21.07C102.114 19.77 103.004 18.77 104.124 18.07C105.244 17.37 106.494 17.02 107.874 17.02C108.974 17.02 109.974 17.25 110.874 17.71C111.794 18.17 112.514 18.79 113.034 19.57V11.8H118.164V34H113.034V31.6C112.554 32.4 111.864 33.04 110.964 33.52C110.084 34 109.054 34.24 107.874 34.24C106.494 34.24 105.244 33.89 104.124 33.19C103.004 32.47 102.114 31.46 101.454 30.16C100.814 28.84 100.494 27.32 100.494 25.6ZM113.034 25.63C113.034 24.35 112.674 23.34 111.954 22.6C111.254 21.86 110.394 21.49 109.374 21.49C108.354 21.49 107.484 21.86 106.764 22.6C106.064 23.32 105.714 24.32 105.714 25.6C105.714 26.88 106.064 27.9 106.764 28.66C107.484 29.4 108.354 29.77 109.374 29.77C110.394 29.77 111.254 29.4 111.954 28.66C112.674 27.92 113.034 26.91 113.034 25.63ZM138.406 17.26V34H133.276V31.72C132.756 32.46 132.046 33.06 131.146 33.52C130.266 33.96 129.286 34.18 128.206 34.18C126.926 34.18 125.796 33.9 124.816 33.34C123.836 32.76 123.076 31.93 122.536 30.85C121.996 29.77 121.726 28.5 121.726 27.04V17.26H126.826V26.35C126.826 27.47 127.116 28.34 127.696 28.96C128.276 29.58 129.056 29.89 130.036 29.89C131.036 29.89 131.826 29.58 132.406 28.96C132.986 28.34 133.276 27.47 133.276 26.35V17.26H138.406ZM141.07 25.63C141.07 23.89 141.42 22.37 142.12 21.07C142.84 19.77 143.83 18.77 145.09 18.07C146.37 17.37 147.83 17.02 149.47 17.02C151.57 17.02 153.32 17.57 154.72 18.67C156.14 19.77 157.07 21.32 157.51 23.32H152.05C151.59 22.04 150.7 21.4 149.38 21.4C148.44 21.4 147.69 21.77 147.13 22.51C146.57 23.23 146.29 24.27 146.29 25.63C146.29 26.99 146.57 28.04 147.13 28.78C147.69 29.5 148.44 29.86 149.38 29.86C150.7 29.86 151.59 29.22 152.05 27.94H157.51C157.07 29.9 156.14 31.44 154.72 32.56C153.3 33.68 151.55 34.24 149.47 34.24C147.83 34.24 146.37 33.89 145.09 33.19C143.83 32.49 142.84 31.49 142.12 30.19C141.42 28.89 141.07 27.37 141.07 25.63ZM169.585 29.65V34H166.975C165.115 34 163.665 33.55 162.625 32.65C161.585 31.73 161.065 30.24 161.065 28.18V21.52H159.025V17.26H161.065V13.18H166.195V17.26H169.555V21.52H166.195V28.24C166.195 28.74 166.315 29.1 166.555 29.32C166.795 29.54 167.195 29.65 167.755 29.65H169.585Z" fill="white"/>
</svg>
